# xmcd
#
# Track frame offsets: 
#        183
#        13778
#        28773
#        40063
#        54903
#        67490
#        84990
#        98290
#        111100
#        124100
#        173790
#        236253
#        248388
#        262358
#
# Disc length: 3667 seconds
#
# Revision: 4
# Processed by: cddbd v1.5.2PL0 Copyright (c) Steve Scherf et al.
# Submitted via: ExactAudioCopyFreeDBPlugin 1.0
#
DISCID=af0e510e
DTITLE=Muddy Waters - The Complete Muddy Waters on Chess Records, 1947
DTITLE=1967 [Charly Red Box]
DYEAR=1992
DGENRE=Blues
TTITLE0=Rollin' Stone (alternate take)
TTITLE1=All Night Long (alternate take)
TTITLE2=She's All Right (alternate take)
TTITLE3=Baby Please Don't Go (alternate take)
TTITLE4=Hoochie Coochie Man (alternate take)
TTITLE5=Take the Bitter with the Sweet (alternate take 1)
TTITLE6=Take the Bitter with the Sweet (alternate take 2)
TTITLE7=She's Into Something (alternate take)
TTITLE8=Recipe for Love (alternate take)
TTITLE9=Woman Wanted (takes 1-8)
TTITLE10=Read Way Back (takes 1-9)
TTITLE11=You Shook Me (alternate take)
TTITLE12=Elevate Me Mama (alternate take)
TTITLE13=You Don't Have to Go (alternate take)
EXTD=
EXTT0=
EXTT1=
EXTT2=
EXTT3=
EXTT4=
EXTT5=
EXTT6=
EXTT7=
EXTT8=
EXTT9=
EXTT10=
EXTT11=
EXTT12=
EXTT13=
PLAYORDER=
